<svg width="81" height="88" viewBox="0 0 81 88" fill="none" xmlns="http://www.w3.org/2000/svg">
<g opacity="0.55">
<g filter="url(#filter0_d_387_257)">
<path d="M43.1284 34.9455C42.4125 34.3131 42.4632 33.2818 43.2385 32.7072L49.7624 27.8725C50.0801 27.637 50.3764 27.3801 50.6483 27.1041L56.0783 21.5946C56.748 20.9152 57.9716 20.9735 58.5551 21.7127V21.7127C58.9807 22.2519 58.9115 22.9787 58.3899 23.4479L45.6176 34.937C44.9376 35.5487 43.8156 35.5525 43.1284 34.9455V34.9455Z" fill="#FED607"/>
</g>
<path d="M46.7751 32.8891C46.7753 32.853 46.8047 32.8239 46.8408 32.824V32.824C46.8769 32.8242 46.906 32.8536 46.9059 32.8897L46.8832 37.6809C46.883 37.7161 46.8544 37.7444 46.8192 37.7443V37.7443C46.7827 37.7441 46.7539 37.7134 46.7559 37.677L46.8235 36.4856L46.7638 35.2838L46.7751 32.8891Z" fill="#FED607"/>
<path d="M46.3776 33.9174C46.3778 33.8813 46.4072 33.8522 46.4433 33.8524V33.8524C46.4794 33.8525 46.5086 33.8819 46.5084 33.9181L46.4933 37.1056C46.4931 37.1417 46.4637 37.1708 46.4276 37.1707V37.1707C46.3915 37.1705 46.3624 37.1411 46.3625 37.105L46.3701 35.5112L46.3717 35.1736C46.3719 35.132 46.3797 35.0908 46.3946 35.0521V35.0521C46.4228 34.9792 46.4251 34.8988 46.4012 34.8244L46.3937 34.8012C46.3805 34.76 46.3738 34.7169 46.374 34.6736L46.3776 33.9174Z" fill="#FED607"/>
<path d="M32.4059 29.1591C32.4061 29.123 32.4355 29.0939 32.4716 29.0941V29.0941C32.5077 29.0942 32.5369 29.1236 32.5367 29.1598L32.5022 36.4665C32.502 36.5027 32.4726 36.5318 32.4365 36.5316V36.5316C32.4003 36.5315 32.3712 36.502 32.3714 36.4659L32.3887 32.8125L32.3923 32.0508C32.3927 31.9604 32.4007 31.8701 32.4163 31.781V31.781C32.4453 31.615 32.4481 31.4455 32.4246 31.2787L32.4156 31.2148C32.4031 31.1262 32.3971 31.0368 32.3975 30.9473L32.4059 29.1591Z" fill="#FED607"/>
<path d="M47.1672 33.2351C47.1666 33.1988 47.1959 33.1691 47.2321 33.1693V33.1693C47.2678 33.1694 47.2967 33.1985 47.2965 33.2342L47.29 34.5999L47.2889 34.8273C47.2886 34.9044 47.2955 34.9813 47.3095 35.057V35.057C47.3377 35.2088 47.337 35.3645 47.3074 35.516V35.516C47.2926 35.5916 47.285 35.6684 47.2846 35.7455L47.2833 36.0302L47.27 38.8261C47.2699 38.8618 47.2408 38.8906 47.2051 38.8905V38.8905C47.1688 38.8903 47.1398 38.8603 47.1408 38.824L47.2179 36.0299L47.1672 33.2351Z" fill="#FED607"/>
<path d="M45.988 33.5722C45.9881 33.5361 46.0176 33.507 46.0537 33.5071V33.5071C46.0898 33.5073 46.1189 33.5367 46.1187 33.5728L46.1123 34.9378L46.1112 35.1652C46.1108 35.2423 46.1177 35.3191 46.1318 35.3949V35.3949C46.16 35.5467 46.1592 35.7024 46.1296 35.8539V35.8539C46.1149 35.9295 46.1072 36.0063 46.1069 36.0834L46.1055 36.3681L46.0923 39.1633C46.0921 39.1994 46.0627 39.2285 46.0266 39.2283V39.2283C45.9905 39.2282 45.9614 39.1988 45.9615 39.1627L45.988 33.5722Z" fill="#FED607"/>
<path d="M32.0153 28.8139C32.0155 28.7778 32.0449 28.7487 32.081 28.7488V28.7488C32.1171 28.749 32.1463 28.7784 32.1461 28.8145L32.1234 33.6057C32.1233 33.6409 32.0946 33.6693 32.0594 33.6691V33.6691C32.023 33.6689 31.9941 33.6382 31.9961 33.6018L32.0637 32.4104L32.004 31.2087L32.0153 28.8139Z" fill="#FED607"/>
<g filter="url(#filter1_d_387_257)">
<path d="M58.7004 34.8754C57.9752 35.504 56.7951 35.4713 56.1148 34.8038L49.9724 28.7764L43.287 23.4697C42.5298 22.8687 42.5031 21.8355 43.2285 21.2068V21.2068C43.9274 20.6012 45.0557 20.6065 45.7488 21.2187L58.7109 32.6691C59.4043 33.2817 59.3996 34.2695 58.7004 34.8754V34.8754Z" fill="#FED607"/>
</g>
<path d="M50.4779 27.8461L50.4911 27.8361L50.5026 27.8247L56.4513 21.9408C56.8999 21.4972 57.7093 21.552 58.0758 22.0508C58.3335 22.4016 58.2802 22.8614 57.9473 23.1591L45.1112 34.6364C44.6543 35.045 43.9031 35.0466 43.4428 34.6399C42.9663 34.2191 42.9951 33.5339 43.5056 33.1459L50.4779 27.8461Z" stroke="#1F1F20" stroke-width="0.5"/>
<path d="M50.3303 28.5091L50.3217 28.5008L50.3123 28.4932L43.6573 23.1574C43.1 22.7106 43.0825 21.9473 43.6188 21.4825C44.1373 21.0332 44.9744 21.0371 45.4886 21.4913L58.4255 32.9194C58.9399 33.3739 58.9365 34.1068 58.4177 34.5563C57.8814 35.0211 57.0094 34.9989 56.5037 34.5074L50.3303 28.5091Z" fill="#FED607" stroke="#252424" stroke-width="0.5"/>
<g filter="url(#filter2_d_387_257)">
<path d="M22.4643 34.8751C21.7484 34.2427 21.7992 33.2115 22.5745 32.6369L29.0983 27.8022C29.4161 27.5667 29.7123 27.3098 29.9843 27.0338L35.4143 21.5243C36.0839 20.8449 37.3076 20.9032 37.891 21.6423V21.6423C38.3166 22.1816 38.2474 22.9084 37.7259 23.3775L24.9536 34.8667C24.2735 35.4784 23.1515 35.4822 22.4643 34.8751V34.8751Z" fill="#FED607"/>
</g>
<g filter="url(#filter3_d_387_257)">
<path d="M38.0364 34.8051C37.3111 35.4337 36.131 35.401 35.4507 34.7335L29.3083 28.7061L22.6229 23.3994C21.8658 22.7984 21.8391 21.7652 22.5645 21.1365V21.1365C23.2633 20.5309 24.3916 20.5362 25.0847 21.1484L38.0468 32.5988C38.7402 33.2114 38.7355 34.1991 38.0364 34.8051V34.8051Z" fill="#FED607"/>
</g>
<path d="M29.8128 27.7758L29.826 27.7658L29.8376 27.7543L35.7863 21.8705C36.2348 21.4269 37.0442 21.4817 37.4108 21.9805C37.6685 22.3313 37.6152 22.7911 37.2823 23.0887L24.4461 34.5661C23.9892 34.9747 23.238 34.9762 22.7777 34.5696C22.3013 34.1487 22.3301 33.4636 22.8406 33.0756L29.8128 27.7758Z" stroke="#1F1F20" stroke-width="0.5"/>
<path d="M29.6653 28.4385L29.6567 28.4302L29.6473 28.4227L22.9922 23.0869C22.435 22.6401 22.4174 21.8768 22.9538 21.4119C23.4722 20.9626 24.3094 20.9666 24.8236 21.4208L37.7604 32.8489C38.2749 33.3033 38.2714 34.0362 37.7527 34.4858C37.2164 34.9506 36.3444 34.9283 35.8386 34.4369L29.6653 28.4385Z" fill="#FED607" stroke="#252424" stroke-width="0.5"/>
<path d="M48.5222 50.6359C48.5223 50.5998 48.5517 50.5707 48.5878 50.5709V50.5709C48.624 50.571 48.6531 50.6004 48.6529 50.6366L48.6465 52.0015L48.6454 52.229C48.645 52.306 48.6519 52.3829 48.666 52.4586V52.4586C48.6941 52.6104 48.6934 52.7661 48.6638 52.9177V52.9177C48.649 52.9932 48.6414 53.0701 48.641 53.1471L48.6397 53.4318L48.6265 56.227C48.6263 56.2631 48.5969 56.2922 48.5608 56.2921V56.2921C48.5247 56.2919 48.4955 56.2625 48.4957 56.2264L48.5222 50.6359Z" fill="#FED607"/>
<path d="M49.1813 49.6091C49.1815 49.573 49.2109 49.5438 49.247 49.544V49.544C49.2831 49.5442 49.3123 49.5736 49.3121 49.6097L49.2894 54.4009C49.2893 54.436 49.2606 54.4644 49.2255 54.4643V54.4643C49.189 54.4641 49.1601 54.4334 49.1622 54.397L49.2297 53.2056L49.17 52.0038L49.1813 49.6091Z" fill="#FED607"/>
<g filter="url(#filter4_d_387_257)">
<path d="M21.7459 43.082C21.7534 41.4932 23.602 40.6253 24.8293 41.6344L28.1361 44.3534C35.8524 50.6981 47.0222 50.5434 54.5599 43.9874L57.1497 41.7349C58.2418 40.785 59.9441 41.5654 59.9372 43.0128L59.9358 43.3166C59.9348 43.5276 59.8574 43.731 59.7179 43.8893V43.8893C50.5856 54.2562 34.7699 55.2346 24.4294 46.0723L21.9819 43.9037C21.83 43.7691 21.7435 43.5757 21.7445 43.3729L21.7459 43.082Z" fill="#FED607"/>
</g>
<g filter="url(#filter5_d_387_257)">
<path d="M59.1473 43.4247L59.1176 43.6338C59.1116 43.6759 59.0927 43.7151 59.0634 43.7459C54.633 48.4034 48.5179 51.0866 42.0908 51.1934L40.5918 51.2183C39.4462 51.2373 38.3027 51.1135 37.1876 50.8497L35.5657 50.4659L34.7131 50.2642C33.0806 49.8779 31.4905 49.3309 29.9659 48.6311C27.9287 47.6959 26.0279 46.4885 24.3156 45.0417L22.7073 43.6829C22.5731 43.5695 22.4845 43.4113 22.4579 43.2377C22.3052 42.2424 23.4431 41.5684 24.2426 42.1806L30.0432 46.6227C30.2539 46.7841 30.4803 46.9236 30.7191 47.0393L31.5349 47.4346C37.8464 50.4925 45.2451 50.3193 51.4066 46.9694L51.2872 46.7498L51.4284 46.956L57.8032 42.5901C58.4235 42.1653 59.253 42.6803 59.1473 43.4247Z" stroke="black" stroke-width="0.5" shape-rendering="crispEdges"/>
</g>
</g>
<defs>
<filter id="filter0_d_387_257" x="21.6226" y="1.11963" width="58.2104" height="56.2786" filterUnits="userSpaceOnUse" color-interpolation-filters="sRGB">
<feFlood flood-opacity="0" result="BackgroundImageFix"/>
<feColorMatrix in="SourceAlpha" type="matrix" values="0 0 0 0 0 0 0 0 0 0 0 0 0 0 0 0 0 0 127 0" result="hardAlpha"/>
<feOffset dy="1"/>
<feGaussianBlur stdDeviation="10.5"/>
<feComposite in2="hardAlpha" operator="out"/>
<feColorMatrix type="matrix" values="0 0 0 0 0.995833 0 0 0 0 0.840749 0 0 0 0 0.0265557 0 0 0 1 0"/>
<feBlend mode="normal" in2="BackgroundImageFix" result="effect1_dropShadow_387_257"/>
<feBlend mode="normal" in="SourceGraphic" in2="effect1_dropShadow_387_257" result="shape"/>
</filter>
<filter id="filter1_d_387_257" x="21.7012" y="0.756104" width="58.5269" height="56.5703" filterUnits="userSpaceOnUse" color-interpolation-filters="sRGB">
<feFlood flood-opacity="0" result="BackgroundImageFix"/>
<feColorMatrix in="SourceAlpha" type="matrix" values="0 0 0 0 0 0 0 0 0 0 0 0 0 0 0 0 0 0 127 0" result="hardAlpha"/>
<feOffset dy="1"/>
<feGaussianBlur stdDeviation="10.5"/>
<feComposite in2="hardAlpha" operator="out"/>
<feColorMatrix type="matrix" values="0 0 0 0 0.995833 0 0 0 0 0.840749 0 0 0 0 0.0265557 0 0 0 1 0"/>
<feBlend mode="normal" in2="BackgroundImageFix" result="effect1_dropShadow_387_257"/>
<feBlend mode="normal" in="SourceGraphic" in2="effect1_dropShadow_387_257" result="shape"/>
</filter>
<filter id="filter2_d_387_257" x="0.958496" y="1.04932" width="58.2104" height="56.2786" filterUnits="userSpaceOnUse" color-interpolation-filters="sRGB">
<feFlood flood-opacity="0" result="BackgroundImageFix"/>
<feColorMatrix in="SourceAlpha" type="matrix" values="0 0 0 0 0 0 0 0 0 0 0 0 0 0 0 0 0 0 127 0" result="hardAlpha"/>
<feOffset dy="1"/>
<feGaussianBlur stdDeviation="10.5"/>
<feComposite in2="hardAlpha" operator="out"/>
<feColorMatrix type="matrix" values="0 0 0 0 0.995833 0 0 0 0 0.840749 0 0 0 0 0.0265557 0 0 0 1 0"/>
<feBlend mode="normal" in2="BackgroundImageFix" result="effect1_dropShadow_387_257"/>
<feBlend mode="normal" in="SourceGraphic" in2="effect1_dropShadow_387_257" result="shape"/>
</filter>
<filter id="filter3_d_387_257" x="1.03711" y="0.685791" width="58.5269" height="56.5703" filterUnits="userSpaceOnUse" color-interpolation-filters="sRGB">
<feFlood flood-opacity="0" result="BackgroundImageFix"/>
<feColorMatrix in="SourceAlpha" type="matrix" values="0 0 0 0 0 0 0 0 0 0 0 0 0 0 0 0 0 0 127 0" result="hardAlpha"/>
<feOffset dy="1"/>
<feGaussianBlur stdDeviation="10.5"/>
<feComposite in2="hardAlpha" operator="out"/>
<feColorMatrix type="matrix" values="0 0 0 0 0.995833 0 0 0 0 0.840749 0 0 0 0 0.0265557 0 0 0 1 0"/>
<feBlend mode="normal" in2="BackgroundImageFix" result="effect1_dropShadow_387_257"/>
<feBlend mode="normal" in="SourceGraphic" in2="effect1_dropShadow_387_257" result="shape"/>
</filter>
<filter id="filter4_d_387_257" x="1.74463" y="21.2017" width="78.1924" height="51.1504" filterUnits="userSpaceOnUse" color-interpolation-filters="sRGB">
<feFlood flood-opacity="0" result="BackgroundImageFix"/>
<feColorMatrix in="SourceAlpha" type="matrix" values="0 0 0 0 0 0 0 0 0 0 0 0 0 0 0 0 0 0 127 0" result="hardAlpha"/>
<feOffset/>
<feGaussianBlur stdDeviation="10"/>
<feComposite in2="hardAlpha" operator="out"/>
<feColorMatrix type="matrix" values="0 0 0 0 0.995833 0 0 0 0 0.840749 0 0 0 0 0.0265557 0 0 0 1 0"/>
<feBlend mode="normal" in2="BackgroundImageFix" result="effect1_dropShadow_387_257"/>
<feBlend mode="normal" in="SourceGraphic" in2="effect1_dropShadow_387_257" result="shape"/>
</filter>
<filter id="filter5_d_387_257" x="2.19385" y="37.696" width="77.2129" height="49.7742" filterUnits="userSpaceOnUse" color-interpolation-filters="sRGB">
<feFlood flood-opacity="0" result="BackgroundImageFix"/>
<feColorMatrix in="SourceAlpha" type="matrix" values="0 0 0 0 0 0 0 0 0 0 0 0 0 0 0 0 0 0 127 0" result="hardAlpha"/>
<feOffset dy="16"/>
<feGaussianBlur stdDeviation="10"/>
<feComposite in2="hardAlpha" operator="out"/>
<feColorMatrix type="matrix" values="0 0 0 0 0.121569 0 0 0 0 0.121569 0 0 0 0 0.12549 0 0 0 0.66 0"/>
<feBlend mode="normal" in2="BackgroundImageFix" result="effect1_dropShadow_387_257"/>
<feBlend mode="normal" in="SourceGraphic" in2="effect1_dropShadow_387_257" result="shape"/>
</filter>
</defs>
</svg>
