<svg width="114" height="115" viewBox="0 0 114 115" fill="none" xmlns="http://www.w3.org/2000/svg">
<g opacity="0.55">
<g filter="url(#filter0_d_293_209)">
<path d="M61.9583 47.3248C60.6006 46.1254 60.6968 44.1695 62.1672 43.0798L74.5402 33.9103C75.1429 33.4637 75.7047 32.9764 76.2205 32.4531L86.5189 22.0039C87.789 20.7152 90.1098 20.8258 91.2163 22.2277C92.0235 23.2504 91.8923 24.6289 90.9031 25.5187L66.6794 47.3088C65.3897 48.4689 63.2617 48.4762 61.9583 47.3248Z" fill="#FED607"/>
</g>
<path d="M68.8744 43.4248C68.8747 43.3563 68.9305 43.301 68.999 43.3014C69.0675 43.3017 69.1228 43.3575 69.1225 43.426L69.0795 52.5139C69.0792 52.5806 69.0248 52.6345 68.9581 52.6341C68.8889 52.6338 68.8341 52.5756 68.8381 52.5065L68.9662 50.2467L68.8529 47.9672L68.8744 43.4248Z" fill="#FED607"/>
<path d="M68.1205 45.375C68.1208 45.3065 68.1766 45.2512 68.2451 45.2516C68.3136 45.2519 68.3689 45.3077 68.3686 45.3762L68.34 51.4223C68.3396 51.4908 68.2838 51.5461 68.2153 51.5458C68.1468 51.5454 68.0916 51.4896 68.0919 51.4211L68.1062 48.3981L68.1092 47.7577C68.1096 47.6788 68.1244 47.6007 68.1528 47.5272C68.2062 47.3889 68.2106 47.2365 68.1652 47.0953L68.1511 47.0514C68.1259 46.9732 68.1133 46.8915 68.1137 46.8093L68.1205 45.375Z" fill="#FED607"/>
<path d="M41.6215 36.3506C41.6218 36.2821 41.6776 36.2268 41.7461 36.2271C41.8146 36.2275 41.8699 36.2833 41.8695 36.3518L41.804 50.2114C41.8037 50.2799 41.7479 50.3351 41.6794 50.3348C41.6109 50.3345 41.5556 50.2787 41.5559 50.2102L41.5887 43.2804L41.5955 41.8356C41.5964 41.664 41.6116 41.4928 41.6412 41.3238C41.6962 41.009 41.7015 40.6875 41.6569 40.371L41.6398 40.2498C41.6161 40.0817 41.6046 39.9121 41.6054 39.7424L41.6215 36.3506Z" fill="#FED607"/>
<path d="M69.6185 44.081C69.6172 44.0122 69.6728 43.9558 69.7417 43.9562C69.8094 43.9565 69.864 44.0116 69.8637 44.0793L69.8514 46.6698L69.8494 47.1012C69.8487 47.2473 69.8618 47.3932 69.8884 47.5368C69.9419 47.8247 69.9405 48.1202 69.8843 48.4076C69.8563 48.551 69.8418 48.6967 69.8412 48.8427L69.8386 49.3828L69.8135 54.6862C69.8132 54.7539 69.758 54.8085 69.6903 54.8082C69.6215 54.8079 69.5664 54.751 69.5683 54.6822L69.7146 49.3822L69.6185 44.081Z" fill="#FED607"/>
<path d="M67.3803 44.7202C67.3806 44.6517 67.4364 44.5965 67.5049 44.5968C67.5734 44.5971 67.6286 44.6529 67.6283 44.7214L67.6161 47.3104L67.614 47.7419C67.6133 47.888 67.6264 48.0338 67.6531 48.1774C67.7065 48.4654 67.7051 48.7608 67.649 49.0482C67.6209 49.1916 67.6065 49.3373 67.6058 49.4834L67.6032 50.0234L67.5782 55.3254C67.5778 55.3939 67.5221 55.4492 67.4536 55.4488C67.3851 55.4485 67.3298 55.3927 67.3301 55.3242L67.3803 44.7202Z" fill="#FED607"/>
<path d="M40.8803 35.6958C40.8806 35.6273 40.9364 35.572 41.0049 35.5724C41.0734 35.5727 41.1286 35.6285 41.1283 35.697L41.0853 44.7849C41.085 44.8516 41.0307 44.9055 40.964 44.9051C40.8948 44.9048 40.84 44.8466 40.8439 44.7775L40.972 42.5177L40.8588 40.2382L40.8803 35.6958Z" fill="#FED607"/>
<g filter="url(#filter1_d_293_209)">
<path d="M91.4914 47.1917C90.1159 48.3838 87.8777 48.3218 86.5876 47.0558L74.9379 35.6244L62.2585 25.5598C60.8225 24.4199 60.7719 22.4604 62.1477 21.2681C63.473 20.1194 65.613 20.1296 66.9275 21.2907L91.5112 43.0073C92.8263 44.169 92.8174 46.0424 91.4914 47.1917Z" fill="#FED607"/>
</g>
<path d="M75.7402 33.7023L75.7534 33.6923L75.7649 33.6809L87.0472 22.5217C88.0026 21.5767 89.7267 21.6934 90.5075 22.756C91.0565 23.5032 90.9429 24.4826 90.2337 25.1167L65.889 46.8845C64.9293 47.7426 63.3515 47.7459 62.3847 46.8918C61.384 46.0078 61.4445 44.5687 62.5167 43.7538L75.7402 33.7023Z" stroke="#1F1F20" stroke-width="0.5"/>
<path d="M75.4395 35.2569L75.4309 35.2486L75.4215 35.241L62.7997 25.1213C61.6422 24.1933 61.6058 22.6079 62.7198 21.6424C63.7966 20.7091 65.5354 20.7174 66.6034 21.6608L91.1392 43.3351C92.2077 44.279 92.2005 45.8011 91.1231 46.7348C90.0093 47.7002 88.1982 47.6539 87.1477 46.6333L75.4395 35.2569Z" fill="#FED607" stroke="#252424" stroke-width="0.5"/>
<g filter="url(#filter2_d_293_209)">
<path d="M22.7659 47.1915C21.4082 45.9921 21.5044 44.0362 22.9749 42.9465L35.3479 33.777C35.9505 33.3304 36.5124 32.8431 37.0282 32.3198L47.3266 21.8706C48.5967 20.5819 50.9174 20.6925 52.0239 22.0944C52.8311 23.1171 52.6999 24.4956 51.7107 25.3854L27.487 47.1755C26.1973 48.3356 24.0693 48.3429 22.7659 47.1915Z" fill="#FED607"/>
</g>
<g filter="url(#filter3_d_293_209)">
<path d="M52.2998 47.0584C50.9242 48.2505 48.686 48.1885 47.3959 46.9225L35.7463 35.4911L23.0669 25.4265C21.6309 24.2866 21.5803 22.3271 22.956 21.1348C24.2814 19.9861 26.4214 19.9963 27.7358 21.1574L52.3196 42.874C53.6347 44.0357 53.6258 45.9091 52.2998 47.0584Z" fill="#FED607"/>
</g>
<path d="M36.5478 33.569L36.561 33.559L36.5725 33.5476L47.8548 22.3884C48.8102 21.4434 50.5343 21.5601 51.3151 22.6227C51.8641 23.3699 51.7505 24.3493 51.0414 24.9834L26.6966 46.7512C25.737 47.6093 24.1591 47.6126 23.1923 46.7585C22.1916 45.8745 22.2522 44.4354 23.3243 43.6205L36.5478 33.569Z" stroke="#1F1F20" stroke-width="0.5"/>
<path d="M36.2471 35.1231L36.2385 35.1148L36.2291 35.1072L23.6073 24.9875C22.4499 24.0595 22.4134 22.4741 23.5274 21.5086C24.6043 20.5754 26.343 20.5836 27.411 21.527L51.9468 43.2013C53.0153 44.1452 53.0081 45.6673 51.9307 46.6011C50.8169 47.5664 49.0058 47.5201 47.9554 46.4995L36.2471 35.1231Z" fill="#FED607" stroke="#252424" stroke-width="0.5"/>
<path d="M72.1879 77.083C72.1882 77.0145 72.244 76.9592 72.3125 76.9596C72.381 76.9599 72.4363 77.0157 72.4359 77.0842L72.4237 79.6732L72.4217 80.1047C72.421 80.2508 72.434 80.3966 72.4607 80.5402C72.5141 80.8282 72.5127 81.1236 72.4566 81.411C72.4286 81.5544 72.4141 81.7001 72.4134 81.8462L72.4109 82.3862L72.3858 87.6882C72.3855 87.7567 72.3297 87.8119 72.2612 87.8116C72.1927 87.8113 72.1374 87.7555 72.1377 87.687L72.1879 77.083Z" fill="#FED607"/>
<path d="M73.4379 75.1353C73.4382 75.0668 73.494 75.0115 73.5625 75.0118C73.631 75.0121 73.6863 75.0679 73.6859 75.1364L73.643 84.2244C73.6426 84.2911 73.5883 84.3449 73.5216 84.3446C73.4524 84.3443 73.3976 84.286 73.4015 84.217L73.5296 81.9571L73.4164 79.6776L73.4379 75.1353Z" fill="#FED607"/>
<g filter="url(#filter4_d_293_209)">
<path d="M21.4048 62.7562C21.4191 59.7429 24.9252 58.0967 27.2527 60.0106L33.5244 65.1674C48.159 77.2006 69.3435 76.9072 83.6393 64.4733L88.5511 60.2012C90.6223 58.3998 93.8508 59.8798 93.8378 62.6248L93.8351 63.2011C93.8332 63.6012 93.6864 63.987 93.422 64.2873C76.1017 83.9488 46.1059 85.8045 26.4944 68.4275L21.8524 64.3145C21.5645 64.0594 21.4004 63.6925 21.4022 63.3078L21.4048 62.7562Z" fill="#FED607"/>
</g>
<g filter="url(#filter5_d_293_209)">
<path d="M77.5514 69.9323L77.5627 69.9262L77.5732 69.9189L89.6634 61.6386C91.0008 60.7226 92.7891 61.833 92.5613 63.4379L92.505 63.8345C92.4871 63.9605 92.4303 64.0779 92.3426 64.1701L92.5237 64.3424L92.3426 64.1701C83.8986 73.0469 72.2437 78.1609 59.9939 78.3644L57.1511 78.4116C54.9597 78.448 52.7723 78.2112 50.6395 77.7065L47.5633 76.9787L45.9462 76.5961C42.8358 75.8601 39.8059 74.8178 36.901 73.4844C33.0187 71.7024 29.3965 69.4013 26.1335 66.6444L23.0832 64.0672C22.7874 63.8172 22.592 63.4685 22.5333 63.0857C22.2131 60.9984 24.5994 59.585 26.276 60.8689L37.2773 69.2937C37.6648 69.5905 38.0814 69.8472 38.5207 70.0601L40.068 70.8097C51.9731 76.5777 65.9292 76.251 77.5514 69.9323Z" stroke="black" stroke-width="0.5" shape-rendering="crispEdges"/>
</g>
</g>
<defs>
<filter id="filter0_d_293_209" x="39.999" y="1.10303" width="72.7446" height="69.0806" filterUnits="userSpaceOnUse" color-interpolation-filters="sRGB">
<feFlood flood-opacity="0" result="BackgroundImageFix"/>
<feColorMatrix in="SourceAlpha" type="matrix" values="0 0 0 0 0 0 0 0 0 0 0 0 0 0 0 0 0 0 127 0" result="hardAlpha"/>
<feOffset dy="1"/>
<feGaussianBlur stdDeviation="10.5"/>
<feComposite in2="hardAlpha" operator="out"/>
<feColorMatrix type="matrix" values="0 0 0 0 0.995833 0 0 0 0 0.840749 0 0 0 0 0.0265557 0 0 0 1 0"/>
<feBlend mode="normal" in2="BackgroundImageFix" result="effect1_dropShadow_293_209"/>
<feBlend mode="normal" in="SourceGraphic" in2="effect1_dropShadow_293_209" result="shape"/>
</filter>
<filter id="filter1_d_293_209" x="40.1477" y="0.413086" width="73.344" height="69.6338" filterUnits="userSpaceOnUse" color-interpolation-filters="sRGB">
<feFlood flood-opacity="0" result="BackgroundImageFix"/>
<feColorMatrix in="SourceAlpha" type="matrix" values="0 0 0 0 0 0 0 0 0 0 0 0 0 0 0 0 0 0 127 0" result="hardAlpha"/>
<feOffset dy="1"/>
<feGaussianBlur stdDeviation="10.5"/>
<feComposite in2="hardAlpha" operator="out"/>
<feColorMatrix type="matrix" values="0 0 0 0 0.995833 0 0 0 0 0.840749 0 0 0 0 0.0265557 0 0 0 1 0"/>
<feBlend mode="normal" in2="BackgroundImageFix" result="effect1_dropShadow_293_209"/>
<feBlend mode="normal" in="SourceGraphic" in2="effect1_dropShadow_293_209" result="shape"/>
</filter>
<filter id="filter2_d_293_209" x="0.806641" y="0.969727" width="72.7446" height="69.0806" filterUnits="userSpaceOnUse" color-interpolation-filters="sRGB">
<feFlood flood-opacity="0" result="BackgroundImageFix"/>
<feColorMatrix in="SourceAlpha" type="matrix" values="0 0 0 0 0 0 0 0 0 0 0 0 0 0 0 0 0 0 127 0" result="hardAlpha"/>
<feOffset dy="1"/>
<feGaussianBlur stdDeviation="10.5"/>
<feComposite in2="hardAlpha" operator="out"/>
<feColorMatrix type="matrix" values="0 0 0 0 0.995833 0 0 0 0 0.840749 0 0 0 0 0.0265557 0 0 0 1 0"/>
<feBlend mode="normal" in2="BackgroundImageFix" result="effect1_dropShadow_293_209"/>
<feBlend mode="normal" in="SourceGraphic" in2="effect1_dropShadow_293_209" result="shape"/>
</filter>
<filter id="filter3_d_293_209" x="0.956055" y="0.279785" width="73.344" height="69.6338" filterUnits="userSpaceOnUse" color-interpolation-filters="sRGB">
<feFlood flood-opacity="0" result="BackgroundImageFix"/>
<feColorMatrix in="SourceAlpha" type="matrix" values="0 0 0 0 0 0 0 0 0 0 0 0 0 0 0 0 0 0 127 0" result="hardAlpha"/>
<feOffset dy="1"/>
<feGaussianBlur stdDeviation="10.5"/>
<feComposite in2="hardAlpha" operator="out"/>
<feColorMatrix type="matrix" values="0 0 0 0 0.995833 0 0 0 0 0.840749 0 0 0 0 0.0265557 0 0 0 1 0"/>
<feBlend mode="normal" in2="BackgroundImageFix" result="effect1_dropShadow_293_209"/>
<feBlend mode="normal" in="SourceGraphic" in2="effect1_dropShadow_293_209" result="shape"/>
</filter>
<filter id="filter4_d_293_209" x="1.4021" y="39.1899" width="112.436" height="61.1479" filterUnits="userSpaceOnUse" color-interpolation-filters="sRGB">
<feFlood flood-opacity="0" result="BackgroundImageFix"/>
<feColorMatrix in="SourceAlpha" type="matrix" values="0 0 0 0 0 0 0 0 0 0 0 0 0 0 0 0 0 0 127 0" result="hardAlpha"/>
<feOffset/>
<feGaussianBlur stdDeviation="10"/>
<feComposite in2="hardAlpha" operator="out"/>
<feColorMatrix type="matrix" values="0 0 0 0 0.995833 0 0 0 0 0.840749 0 0 0 0 0.0265557 0 0 0 1 0"/>
<feBlend mode="normal" in2="BackgroundImageFix" result="effect1_dropShadow_293_209"/>
<feBlend mode="normal" in="SourceGraphic" in2="effect1_dropShadow_293_209" result="shape"/>
</filter>
<filter id="filter5_d_293_209" x="2.25391" y="56.1279" width="110.577" height="58.5371" filterUnits="userSpaceOnUse" color-interpolation-filters="sRGB">
<feFlood flood-opacity="0" result="BackgroundImageFix"/>
<feColorMatrix in="SourceAlpha" type="matrix" values="0 0 0 0 0 0 0 0 0 0 0 0 0 0 0 0 0 0 127 0" result="hardAlpha"/>
<feOffset dy="16"/>
<feGaussianBlur stdDeviation="10"/>
<feComposite in2="hardAlpha" operator="out"/>
<feColorMatrix type="matrix" values="0 0 0 0 0.121569 0 0 0 0 0.121569 0 0 0 0 0.12549 0 0 0 0.66 0"/>
<feBlend mode="normal" in2="BackgroundImageFix" result="effect1_dropShadow_293_209"/>
<feBlend mode="normal" in="SourceGraphic" in2="effect1_dropShadow_293_209" result="shape"/>
</filter>
</defs>
</svg>
