<svg width="47" height="47" viewBox="0 0 47 47" fill="none" xmlns="http://www.w3.org/2000/svg">
<rect x="10.2812" y="10.2812" width="26.4375" height="26.4375" rx="3.5" stroke="#FED607" stroke-width="1.5"/>
<path d="M29.3718 23.3057C29.3973 24.0768 29.2707 24.8454 28.9992 25.5676C28.7276 26.2897 28.3165 26.9513 27.7893 27.5146C27.2621 28.0779 26.6291 28.5318 25.9265 28.8505C25.2239 29.1691 24.4653 29.3463 23.6943 29.3718C22.9232 29.3973 22.1546 29.2707 21.4324 28.9992C20.7103 28.7276 20.0487 28.3165 19.4854 27.7893C18.9221 27.2621 18.4682 26.6291 18.1495 25.9265C17.8309 25.2239 17.6537 24.4653 17.6282 23.6943C17.6027 22.9232 17.7293 22.1546 18.0008 21.4324C18.2724 20.7103 18.6835 20.0487 19.2107 19.4854C19.7379 18.9221 20.3709 18.4682 21.0735 18.1495C21.7761 17.8309 22.5347 17.6537 23.3057 17.6282C24.0768 17.6027 24.8454 17.7293 25.5676 18.0008C26.2897 18.2724 26.9513 18.6835 27.5146 19.2107C28.0779 19.7379 28.5318 20.3709 28.8505 21.0735C29.1691 21.7761 29.3463 22.5347 29.3718 23.3057Z" stroke="#FED607" stroke-width="1.5" stroke-linecap="round" stroke-linejoin="round"/>
<path d="M30.8242 16.9062C30.41 16.9062 30.0742 16.5705 30.0742 16.1562C30.0742 15.742 30.41 15.4062 30.8242 15.4062V16.9062ZM30.8438 15.4062C31.258 15.4062 31.5938 15.742 31.5938 16.1562C31.5938 16.5705 31.258 16.9062 30.8438 16.9062V15.4062ZM30.8242 15.4062H30.8438V16.9062H30.8242V15.4062Z" fill="#FED607"/>
</svg>
