<svg width="102" height="106" viewBox="0 0 102 106" fill="none" xmlns="http://www.w3.org/2000/svg">
<g opacity="0.55">
<g filter="url(#filter0_d_287_389)">
<path d="M55.183 42.7618C54.0448 41.7564 54.1255 40.1167 55.3581 39.2032L65.7303 31.5165C66.2356 31.1421 66.7065 30.7337 67.1389 30.2949L75.772 21.5354C76.8367 20.4551 78.7822 20.5478 79.7098 21.7231C80.3864 22.5804 80.2765 23.7359 79.4472 24.4818L59.1407 42.7483C58.0595 43.7209 56.2756 43.727 55.183 42.7618Z" fill="#FED607"/>
</g>
<path d="M60.981 39.4925C60.9812 39.4351 61.028 39.3888 61.0854 39.389C61.1428 39.3893 61.1892 39.4361 61.1889 39.4935L61.1529 47.1119C61.1526 47.1678 61.107 47.2129 61.0511 47.2127C60.9931 47.2124 60.9472 47.1635 60.9505 47.1056L61.0579 45.2113L60.9629 43.3003L60.981 39.4925Z" fill="#FED607"/>
<path d="M60.3491 41.1271C60.3494 41.0697 60.3962 41.0233 60.4536 41.0236C60.511 41.0239 60.5573 41.0706 60.5571 41.1281L60.5331 46.1965C60.5328 46.2539 60.486 46.3002 60.4286 46.3C60.3712 46.2997 60.3249 46.2529 60.3251 46.1955L60.3371 43.6613L60.3397 43.1244C60.34 43.0584 60.3524 42.9929 60.3762 42.9312C60.421 42.8153 60.4246 42.6875 60.3866 42.5692L60.3748 42.5323C60.3537 42.4668 60.3431 42.3983 60.3434 42.3295L60.3491 41.1271Z" fill="#FED607"/>
<path d="M38.1343 33.5621C38.1345 33.5047 38.1813 33.4584 38.2387 33.4587C38.2962 33.4589 38.3425 33.5057 38.3422 33.5631L38.2873 45.1815C38.287 45.239 38.2402 45.2853 38.1828 45.285C38.1254 45.2847 38.079 45.238 38.0793 45.1806L38.1068 39.3713L38.1125 38.1602C38.1132 38.0163 38.126 37.8728 38.1508 37.7311C38.1969 37.4672 38.2014 37.1977 38.164 36.9324L38.1496 36.8308C38.1298 36.6899 38.1202 36.5478 38.1208 36.4055L38.1343 33.5621Z" fill="#FED607"/>
<path d="M61.6044 40.0425C61.6034 39.9848 61.65 39.9376 61.7077 39.9378C61.7645 39.9381 61.8103 39.9843 61.81 40.0411L61.7997 42.2126L61.798 42.5744C61.7974 42.6968 61.8084 42.8191 61.8307 42.9395C61.8755 43.1809 61.8744 43.4285 61.8273 43.6694C61.8038 43.7896 61.7917 43.9118 61.7911 44.0342L61.789 44.4869L61.7679 48.9328C61.7677 48.9895 61.7214 49.0353 61.6647 49.035C61.607 49.0348 61.5608 48.9871 61.5624 48.9294L61.685 44.4864L61.6044 40.0425Z" fill="#FED607"/>
<path d="M59.728 40.5783C59.7283 40.5209 59.7751 40.4746 59.8325 40.4748C59.8899 40.4751 59.9362 40.5219 59.936 40.5793L59.9257 42.7496L59.924 43.1113C59.9234 43.2338 59.9344 43.3561 59.9567 43.4765C60.0015 43.7178 60.0003 43.9655 59.9533 44.2064C59.9298 44.3266 59.9177 44.4488 59.9171 44.5712L59.9149 45.0239L59.8939 49.4686C59.8936 49.526 59.8469 49.5723 59.7895 49.572C59.732 49.5718 59.6857 49.525 59.686 49.4676L59.728 40.5783Z" fill="#FED607"/>
<path d="M37.5132 33.0134C37.5135 32.9559 37.5602 32.9096 37.6176 32.9099C37.6751 32.9102 37.7214 32.9569 37.7211 33.0143L37.6851 40.6327C37.6848 40.6886 37.6393 40.7338 37.5833 40.7335C37.5253 40.7332 37.4794 40.6844 37.4827 40.6265L37.5901 38.7321L37.4952 36.8212L37.5132 33.0134Z" fill="#FED607"/>
<g filter="url(#filter1_d_287_389)">
<path d="M79.9406 42.6503C78.7875 43.6496 76.9113 43.5976 75.8297 42.5364L66.0639 32.9535L55.4349 24.5164C54.2311 23.5608 54.1886 21.9182 55.3419 20.9187C56.453 19.9558 58.2469 19.9643 59.3488 20.9376L79.9572 39.1425C81.0596 40.1164 81.0522 41.6869 79.9406 42.6503Z" fill="#FED607"/>
</g>
<path d="M66.7646 31.3706L66.7777 31.3606L66.7893 31.3492L76.2471 21.9946C77.0292 21.221 78.4404 21.3166 79.0794 22.1863C79.5288 22.7979 79.4359 23.5996 78.8554 24.1186L58.4474 42.3664C57.6597 43.0707 56.3646 43.0734 55.5711 42.3724C54.7497 41.6468 54.7994 40.4656 55.6794 39.7967L66.7646 31.3706Z" stroke="#1F1F20" stroke-width="0.5"/>
<path d="M66.5158 32.6199L66.5073 32.6116L66.4978 32.604L55.9171 24.1207C54.9649 23.3573 54.9349 22.0531 55.8513 21.2589C56.7372 20.4912 58.1675 20.4979 59.0461 21.274L79.6143 39.4434C80.4933 40.2199 80.4873 41.4721 79.601 42.2402C78.6848 43.0343 77.1949 42.9962 76.3308 42.1566L66.5158 32.6199Z" fill="#FED607" stroke="#252424" stroke-width="0.5"/>
<g filter="url(#filter2_d_287_389)">
<path d="M22.3285 42.6064C21.1903 41.601 21.271 39.9614 22.5036 39.0479L32.8758 31.3611C33.3811 30.9867 33.852 30.5783 34.2844 30.1396L42.9175 21.3801C43.9822 20.2998 45.9277 20.3925 46.8553 21.5677C47.532 22.425 47.422 23.5806 46.5927 24.3265L26.2862 42.593C25.205 43.5655 23.4211 43.5716 22.3285 42.6064Z" fill="#FED607"/>
</g>
<g filter="url(#filter3_d_287_389)">
<path d="M47.0861 42.4949C45.933 43.4942 44.0568 43.4422 42.9753 42.381L33.2095 32.7981L22.5804 24.361C21.3766 23.4054 21.3342 21.7628 22.4875 20.7633C23.5985 19.8004 25.3925 19.8089 26.4944 20.7823L47.1027 38.9871C48.2052 39.961 48.1977 41.5315 47.0861 42.4949Z" fill="#FED607"/>
</g>
<path d="M33.9101 31.2152L33.9232 31.2052L33.9348 31.1938L43.3926 21.8392C44.1747 21.0656 45.5859 21.1612 46.225 22.031C46.6743 22.6425 46.5814 23.4442 46.0009 23.9632L25.5929 42.211C24.8052 42.9153 23.5101 42.918 22.7166 42.217C21.8952 41.4914 21.9449 40.3102 22.8249 39.6413L33.9101 31.2152Z" stroke="#1F1F20" stroke-width="0.5"/>
<path d="M33.6613 32.4646L33.6528 32.4562L33.6433 32.4487L23.0626 23.9654C22.1104 23.202 22.0805 21.8977 22.9968 21.1035C23.8827 20.3358 25.313 20.3426 26.1916 21.1187L46.7598 39.2881C47.6388 40.0645 47.6328 41.3167 46.7465 42.0848C45.8303 42.8789 44.3404 42.8409 43.4763 42.0013L33.6613 32.4646Z" fill="#FED607" stroke="#252424" stroke-width="0.5"/>
<path d="M63.7583 67.7077C63.7586 67.6502 63.8053 67.6039 63.8628 67.6042C63.9202 67.6045 63.9665 67.6512 63.9662 67.7087L63.956 69.879L63.9543 70.2407C63.9537 70.3632 63.9646 70.4854 63.987 70.6058C64.0318 70.8472 64.0306 71.0949 63.9835 71.3358C63.96 71.456 63.9479 71.5781 63.9474 71.7006L63.9452 72.1533L63.9242 76.5979C63.9239 76.6553 63.8771 76.7017 63.8197 76.7014C63.7623 76.7011 63.716 76.6544 63.7163 76.5969L63.7583 67.7077Z" fill="#FED607"/>
<path d="M64.8061 66.075C64.8064 66.0176 64.8532 65.9713 64.9106 65.9716C64.968 65.9718 65.0144 66.0186 65.0141 66.076L64.9781 73.6944C64.9778 73.7503 64.9322 73.7954 64.8763 73.7952C64.8183 73.7949 64.7724 73.7461 64.7757 73.6882L64.8831 71.7938L64.7881 69.8829L64.8061 66.075Z" fill="#FED607"/>
<g filter="url(#filter4_d_287_389)">
<path d="M21.187 55.6975C21.1989 53.1715 24.138 51.7915 26.0892 53.3959L31.3467 57.7188C43.6148 67.8062 61.3736 67.5602 73.3577 57.137L77.4752 53.5557C79.2115 52.0456 81.918 53.2862 81.9071 55.5874L81.9048 56.0705C81.9032 56.4059 81.7802 56.7293 81.5585 56.981C67.039 73.4632 41.8937 75.0187 25.4535 60.4518L21.5622 57.0039C21.3208 56.79 21.1832 56.4824 21.1848 56.1599L21.187 55.6975Z" fill="#FED607"/>
</g>
<g filter="url(#filter5_d_287_389)">
<path d="M68.2737 61.7488L68.285 61.7427L68.2956 61.7355L78.4307 54.7941C79.5228 54.0462 80.9831 54.9529 80.7971 56.2634L80.7499 56.5959C80.7361 56.6932 80.6923 56.7838 80.6245 56.855C73.5534 64.2885 63.7935 68.5711 53.5355 68.7415L51.1523 68.7811C49.3186 68.8115 47.4883 68.6133 45.7036 68.1911L43.1249 67.5809L41.7693 67.2602C39.1645 66.6439 36.627 65.771 34.1943 64.6543C30.9432 63.1619 27.9097 61.235 25.1772 58.9262L22.6202 56.7658C22.3796 56.5625 22.2208 56.279 22.1731 55.9677C21.9102 54.2539 23.8695 53.0935 25.246 54.1477L34.4683 61.2101C34.7954 61.4605 35.1469 61.6772 35.5176 61.8568L36.8147 62.4853C46.8065 67.3262 58.5194 67.052 68.2737 61.7488Z" stroke="black" stroke-width="0.5" shape-rendering="crispEdges"/>
</g>
</g>
<defs>
<filter id="filter0_d_287_389" x="33.3789" y="0.780182" width="67.7729" height="64.7016" filterUnits="userSpaceOnUse" color-interpolation-filters="sRGB">
<feFlood flood-opacity="0" result="BackgroundImageFix"/>
<feColorMatrix in="SourceAlpha" type="matrix" values="0 0 0 0 0 0 0 0 0 0 0 0 0 0 0 0 0 0 127 0" result="hardAlpha"/>
<feOffset dy="1"/>
<feGaussianBlur stdDeviation="10.5"/>
<feComposite in2="hardAlpha" operator="out"/>
<feColorMatrix type="matrix" values="0 0 0 0 0.995833 0 0 0 0 0.840749 0 0 0 0 0.0265557 0 0 0 1 0"/>
<feBlend mode="normal" in2="BackgroundImageFix" result="effect1_dropShadow_287_389"/>
<feBlend mode="normal" in="SourceGraphic" in2="effect1_dropShadow_287_389" result="shape"/>
</filter>
<filter id="filter1_d_287_389" x="33.5037" y="0.202026" width="68.2756" height="65.1653" filterUnits="userSpaceOnUse" color-interpolation-filters="sRGB">
<feFlood flood-opacity="0" result="BackgroundImageFix"/>
<feColorMatrix in="SourceAlpha" type="matrix" values="0 0 0 0 0 0 0 0 0 0 0 0 0 0 0 0 0 0 127 0" result="hardAlpha"/>
<feOffset dy="1"/>
<feGaussianBlur stdDeviation="10.5"/>
<feComposite in2="hardAlpha" operator="out"/>
<feColorMatrix type="matrix" values="0 0 0 0 0.995833 0 0 0 0 0.840749 0 0 0 0 0.0265557 0 0 0 1 0"/>
<feBlend mode="normal" in2="BackgroundImageFix" result="effect1_dropShadow_287_389"/>
<feBlend mode="normal" in="SourceGraphic" in2="effect1_dropShadow_287_389" result="shape"/>
</filter>
<filter id="filter2_d_287_389" x="0.524414" y="0.624817" width="67.7729" height="64.7016" filterUnits="userSpaceOnUse" color-interpolation-filters="sRGB">
<feFlood flood-opacity="0" result="BackgroundImageFix"/>
<feColorMatrix in="SourceAlpha" type="matrix" values="0 0 0 0 0 0 0 0 0 0 0 0 0 0 0 0 0 0 127 0" result="hardAlpha"/>
<feOffset dy="1"/>
<feGaussianBlur stdDeviation="10.5"/>
<feComposite in2="hardAlpha" operator="out"/>
<feColorMatrix type="matrix" values="0 0 0 0 0.995833 0 0 0 0 0.840749 0 0 0 0 0.0265557 0 0 0 1 0"/>
<feBlend mode="normal" in2="BackgroundImageFix" result="effect1_dropShadow_287_389"/>
<feBlend mode="normal" in="SourceGraphic" in2="effect1_dropShadow_287_389" result="shape"/>
</filter>
<filter id="filter3_d_287_389" x="0.64917" y="0.0466309" width="68.2756" height="65.1653" filterUnits="userSpaceOnUse" color-interpolation-filters="sRGB">
<feFlood flood-opacity="0" result="BackgroundImageFix"/>
<feColorMatrix in="SourceAlpha" type="matrix" values="0 0 0 0 0 0 0 0 0 0 0 0 0 0 0 0 0 0 127 0" result="hardAlpha"/>
<feOffset dy="1"/>
<feGaussianBlur stdDeviation="10.5"/>
<feComposite in2="hardAlpha" operator="out"/>
<feColorMatrix type="matrix" values="0 0 0 0 0.995833 0 0 0 0 0.840749 0 0 0 0 0.0265557 0 0 0 1 0"/>
<feBlend mode="normal" in2="BackgroundImageFix" result="effect1_dropShadow_287_389"/>
<feBlend mode="normal" in="SourceGraphic" in2="effect1_dropShadow_287_389" result="shape"/>
</filter>
<filter id="filter4_d_287_389" x="1.18481" y="32.708" width="100.722" height="57.7281" filterUnits="userSpaceOnUse" color-interpolation-filters="sRGB">
<feFlood flood-opacity="0" result="BackgroundImageFix"/>
<feColorMatrix in="SourceAlpha" type="matrix" values="0 0 0 0 0 0 0 0 0 0 0 0 0 0 0 0 0 0 127 0" result="hardAlpha"/>
<feOffset/>
<feGaussianBlur stdDeviation="10"/>
<feComposite in2="hardAlpha" operator="out"/>
<feColorMatrix type="matrix" values="0 0 0 0 0.995833 0 0 0 0 0.840749 0 0 0 0 0.0265557 0 0 0 1 0"/>
<feBlend mode="normal" in2="BackgroundImageFix" result="effect1_dropShadow_287_389"/>
<feBlend mode="normal" in="SourceGraphic" in2="effect1_dropShadow_287_389" result="shape"/>
</filter>
<filter id="filter5_d_287_389" x="1.89893" y="49.4945" width="99.1646" height="55.5396" filterUnits="userSpaceOnUse" color-interpolation-filters="sRGB">
<feFlood flood-opacity="0" result="BackgroundImageFix"/>
<feColorMatrix in="SourceAlpha" type="matrix" values="0 0 0 0 0 0 0 0 0 0 0 0 0 0 0 0 0 0 127 0" result="hardAlpha"/>
<feOffset dy="16"/>
<feGaussianBlur stdDeviation="10"/>
<feComposite in2="hardAlpha" operator="out"/>
<feColorMatrix type="matrix" values="0 0 0 0 0.121569 0 0 0 0 0.121569 0 0 0 0 0.12549 0 0 0 0.66 0"/>
<feBlend mode="normal" in2="BackgroundImageFix" result="effect1_dropShadow_287_389"/>
<feBlend mode="normal" in="SourceGraphic" in2="effect1_dropShadow_287_389" result="shape"/>
</filter>
</defs>
</svg>
