<svg width="36" height="41" viewBox="0 0 36 41" fill="none" xmlns="http://www.w3.org/2000/svg">
<g clip-path="url(#clip0_387_238)">
<path d="M32.7705 37.5919V39.612H35.4037V40.3684H29.4502V37.2568H30.099V39.612H32.1312V37.5919H32.7705ZM34.7645 35.5717V33.2261H35.4037V36.3281H29.4502V35.5717H34.7645ZM33.8104 29.4539V31.474L35.3656 31.9336V32.7091L29.412 30.7942V30.1432L35.3656 28.2284V28.9943L33.8104 29.4539ZM33.1616 31.2729V29.6453L30.4997 30.44L33.1616 31.2729ZM34.2111 26.0455L29.4407 24.6763V23.853L35.3942 25.7104V26.371L29.4407 28.2284V27.405L34.2111 26.0455ZM32.9136 19.2095C33.5898 19.1579 34.2633 19.3404 34.8218 19.7265C35.0403 19.9043 35.2139 20.1314 35.3283 20.3893C35.4427 20.6472 35.4947 20.9286 35.4801 21.2105C35.4915 21.4865 35.4409 21.7614 35.3318 22.015C35.2228 22.2686 35.0583 22.4943 34.8504 22.6753C34.3265 23.0617 33.6872 23.2575 33.0376 23.2306H31.9118C31.233 23.279 30.5586 23.0895 30.0036 22.6945C29.7781 22.5234 29.5977 22.2997 29.478 22.0427C29.3583 21.7858 29.3029 21.5034 29.3166 21.2201C29.3028 20.9396 29.3552 20.6599 29.4696 20.4036C29.584 20.1474 29.7572 19.9219 29.975 19.7457C30.5118 19.3654 31.1601 19.1766 31.8164 19.2095H32.9136ZM31.8736 19.9563C31.3854 19.9215 30.8977 20.0314 30.4711 20.2722C30.3138 20.3742 30.1872 20.5171 30.1049 20.6858C30.0225 20.8545 29.9875 21.0425 30.0036 21.2296C29.9896 21.4165 30.0255 21.6038 30.1077 21.7721C30.1899 21.9404 30.3153 22.0837 30.4711 22.1871C30.8895 22.4228 31.3656 22.5356 31.845 22.5126H32.9136C33.4237 22.5491 33.9329 22.4289 34.3733 22.1679C34.5305 22.0647 34.6581 21.9221 34.7435 21.7541C34.8288 21.5862 34.869 21.3988 34.8599 21.2105C34.875 21.0255 34.8415 20.8398 34.7629 20.6718C34.6842 20.5038 34.563 20.3595 34.4115 20.2531C33.9986 20.0218 33.5289 19.9122 33.0567 19.9371L31.8736 19.9563ZM32.9517 16.2415V17.2851H35.3656V18.0415H29.4502V16.366C29.4335 16.1247 29.4655 15.8824 29.5441 15.6538C29.6228 15.4251 29.7466 15.2147 29.9082 15.0352C30.0902 14.8754 30.3019 14.7534 30.5312 14.6761C30.7605 14.5989 31.0027 14.568 31.2439 14.5852C31.5782 14.5829 31.9072 14.6687 32.198 14.8341C32.4673 14.9955 32.6805 15.2362 32.8086 15.5234L35.3274 14.365V15.1692L32.9517 16.2415ZM32.3125 17.2851V16.3277C32.3189 16.1884 32.2948 16.0494 32.2421 15.9204C32.1894 15.7914 32.1092 15.6756 32.0072 15.5809C31.7883 15.3827 31.5002 15.2795 31.2057 15.2937C30.4425 15.2937 30.0608 15.6383 30.0608 16.3373V17.2372L32.3125 17.2851ZM34.3638 12.498V10.4108H35.3179V13.7427H29.4502V12.5363L34.3638 12.498ZM34.1443 6.75351V8.41942L35.3656 8.73537V10.0183L29.4502 8.15134V7.05031L35.4037 5.13548V6.50459L34.1443 6.75351ZM33.1903 8.13219V7.04074L31.0722 7.60562L33.1903 8.13219ZM35.4037 4.58975H29.4502V2.75151C29.4167 2.244 29.5656 1.74124 29.87 1.33454C30.0222 1.16665 30.2102 1.0355 30.42 0.950936C30.6299 0.866371 30.8561 0.830583 31.0817 0.846257C31.3561 0.838628 31.6271 0.908278 31.8641 1.04731C32.0779 1.17676 32.245 1.37129 32.3411 1.60262C32.4068 1.34308 32.5712 1.1197 32.7991 0.980295C33.0558 0.828146 33.3502 0.751817 33.6482 0.760089C33.8888 0.743189 34.1303 0.777055 34.3571 0.859505C34.5838 0.941955 34.7909 1.07116 34.9649 1.2388C35.2906 1.64263 35.4478 2.15729 35.4037 2.67492V4.58975ZM32.8182 3.39298H34.3733V2.67492C34.3798 2.58212 34.3651 2.48906 34.3304 2.4028C34.2957 2.31654 34.2418 2.23934 34.173 2.17707C34.0088 2.06111 33.8106 2.0038 33.6101 2.0143C33.0758 2.0143 32.7991 2.20579 32.7895 2.59833L32.8182 3.39298ZM31.9404 3.39298V2.77066C31.9404 2.29195 31.6923 2.06218 31.2057 2.06218C30.9983 2.04114 30.7905 2.09924 30.6237 2.22494C30.5609 2.29633 30.5132 2.37986 30.4837 2.47042C30.4541 2.56097 30.4434 2.65663 30.452 2.75151V3.39298H31.9404Z" fill="white"/>
<path d="M25.1382 20.3298C25.333 20.3298 25.5199 20.4074 25.6576 20.5457C25.7954 20.6839 25.8728 20.8714 25.8728 21.067V40.0142C25.8728 40.2098 25.7954 40.3973 25.6576 40.5355C25.5199 40.6738 25.333 40.7514 25.1382 40.7514H1.71518C1.61835 40.7527 1.52225 40.7345 1.43253 40.698C1.34282 40.6614 1.26132 40.6071 1.19285 40.5384C1.12437 40.4697 1.07031 40.3879 1.03384 40.2979C0.997376 40.2078 0.97925 40.1114 0.980532 40.0142V18.9511C0.980532 18.7556 1.05793 18.568 1.19571 18.4298C1.33348 18.2915 1.52034 18.2139 1.71518 18.2139H5.25487C5.35215 18.2139 5.44847 18.2332 5.53823 18.2709C5.62799 18.3085 5.7094 18.3637 5.77775 18.4332C5.84609 18.5026 5.90001 18.585 5.93636 18.6756C5.97271 18.7661 5.99078 18.863 5.98952 18.9607L5.80824 34.5761C5.80818 34.7709 5.88396 34.958 6.01942 35.0975C6.15488 35.237 6.33931 35.3179 6.53335 35.3229L20.5013 35.5527C20.5985 35.5539 20.6951 35.5358 20.7853 35.4993C20.8756 35.4629 20.9577 35.4088 21.0269 35.3402C21.0962 35.2716 21.1511 35.1899 21.1886 35.0998C21.2262 35.0097 21.2455 34.9131 21.2455 34.8155L21.1882 21.067C21.1869 20.9698 21.2051 20.8734 21.2415 20.7833C21.278 20.6933 21.3321 20.6115 21.4005 20.5428C21.469 20.4741 21.5505 20.4198 21.6402 20.3833C21.7299 20.3467 21.826 20.3285 21.9229 20.3298H25.1382Z" fill="white"/>
<path d="M10.1585 0.760074C10.0617 0.758786 9.9656 0.776976 9.87589 0.813568C9.78618 0.850161 9.70468 0.904415 9.63621 0.97313C9.56773 1.04184 9.51367 1.12363 9.4772 1.21365C9.44074 1.30367 9.42261 1.40012 9.42389 1.49728V27.1369C9.42389 27.3324 9.50129 27.5199 9.63907 27.6582C9.77684 27.7964 9.9637 27.8741 10.1585 27.8741H17.8676C18.0617 27.8716 18.2471 27.7932 18.3844 27.6554C18.5216 27.5177 18.5998 27.3316 18.6023 27.1369V23.4413C18.5998 23.2465 18.5216 23.0604 18.3844 22.9227C18.2471 22.785 18.0617 22.7065 17.8676 22.7041H15.2916C15.0967 22.7041 14.9099 22.6264 14.7721 22.4881C14.6343 22.3499 14.5569 22.1624 14.5569 21.9668V1.49728C14.5582 1.40093 14.5404 1.30528 14.5045 1.21589C14.4686 1.1265 14.4154 1.04515 14.3479 0.976567C14.2805 0.907982 14.2001 0.853527 14.1115 0.816363C14.0229 0.779199 13.9278 0.760065 13.8318 0.760074H10.1585Z" fill="white"/>
<path d="M20.3389 7.03102C20.9394 7.02913 21.5269 7.20608 22.0271 7.53946C22.5273 7.87285 22.9177 8.34769 23.1488 8.90384C23.3799 9.46 23.4413 10.0725 23.3253 10.6637C23.2094 11.2549 22.9211 11.7983 22.4972 12.225C22.0733 12.6518 21.5327 12.9427 20.9439 13.061C20.3551 13.1792 19.7446 13.1195 19.1896 12.8893C18.6347 12.6592 18.1603 12.269 17.8264 11.7681C17.4926 11.2672 17.3145 10.6782 17.3145 10.0756C17.3144 9.26979 17.6328 8.49683 18.1997 7.92614C18.7666 7.35544 19.5359 7.03355 20.3389 7.03102Z" fill="white"/>
</g>
<defs>
<clipPath id="clip0_387_238">
<rect width="34.5" height="40.02" fill="white" transform="translate(0.980469 0.76001)"/>
</clipPath>
</defs>
</svg>
