<svg width="75" height="87" viewBox="0 0 75 87" fill="none" xmlns="http://www.w3.org/2000/svg">
<g clip-path="url(#clip0_295_232)">
<path d="M69.1095 80.0693V84.4609H74.834V86.1052H61.8916V79.3408H63.302V84.4609H67.7198V80.0693H69.1095ZM73.4444 75.6777V70.5784H74.834V77.3219H61.8916V75.6777H73.4444ZM71.3703 62.3779V66.7695L74.7511 67.7686V69.4545L61.8086 65.2918V63.8765L74.7511 59.7138V61.3789L71.3703 62.3779ZM69.9599 66.3325V62.7942L64.1731 64.5217L69.9599 66.3325ZM72.2414 54.9683L61.8708 51.992V50.2021L74.8133 54.2399V55.676L61.8708 59.7138V57.9238L72.2414 54.9683ZM69.4206 40.1076C70.8907 39.9955 72.3547 40.3921 73.5688 41.2315C74.0439 41.6179 74.4213 42.1116 74.67 42.6723C74.9187 43.233 75.0318 43.8447 75 44.4576C75.0248 45.0575 74.9147 45.6553 74.6777 46.2066C74.4407 46.7579 74.083 47.2485 73.631 47.642C72.4922 48.4818 71.1023 48.9076 69.6902 48.8492H67.2428C65.7673 48.9543 64.3011 48.5424 63.0945 47.6837C62.6045 47.3117 62.2123 46.8253 61.952 46.2667C61.6918 45.7082 61.5713 45.0943 61.6012 44.4784C61.571 43.8687 61.6849 43.2606 61.9337 42.7035C62.1824 42.1465 62.5588 41.6563 63.0323 41.2731C64.1993 40.4464 65.6087 40.0361 67.0354 40.1076H69.4206ZM67.1598 41.731C66.0984 41.6555 65.0382 41.8943 64.1109 42.4179C63.769 42.6394 63.4938 42.9503 63.3148 43.3169C63.1357 43.6836 63.0596 44.0924 63.0945 44.4992C63.0641 44.9055 63.1422 45.3126 63.3208 45.6785C63.4995 46.0443 63.7722 46.3557 64.1109 46.5805C65.0205 47.093 66.0556 47.3382 67.0976 47.2882H69.4206C70.5297 47.3675 71.6365 47.1062 72.594 46.5389C72.9357 46.3145 73.2131 46.0044 73.3987 45.6394C73.5842 45.2743 73.6714 44.8669 73.6518 44.4576C73.6846 44.0554 73.6118 43.6517 73.4408 43.2865C73.2698 42.9214 73.0064 42.6075 72.677 42.3762C71.7793 41.8734 70.7583 41.6353 69.7317 41.6894L67.1598 41.731ZM69.5036 33.6554V35.9241H74.7511V37.5683H61.8916V33.926C61.8553 33.4014 61.9247 32.8748 62.0958 32.3777C62.2668 31.8807 62.536 31.4233 62.8871 31.0329C63.2828 30.6856 63.7432 30.4204 64.2415 30.2525C64.7399 30.0846 65.2665 30.0174 65.7909 30.0547C66.5176 30.0497 67.2328 30.2363 67.865 30.5959C68.4504 30.9467 68.9139 31.4699 69.1924 32.0944L74.6681 29.576V31.3243L69.5036 33.6554ZM68.1139 35.9241V33.8427C68.1277 33.54 68.0755 33.2378 67.9609 32.9574C67.8462 32.677 67.6719 32.4251 67.4502 32.2193C66.9744 31.7885 66.3481 31.564 65.7079 31.5949C64.0486 31.5949 63.219 32.3442 63.219 33.8636V35.82L68.1139 35.9241ZM72.5732 25.5174V20.9801H74.6474V28.2231H61.8916V25.6006L72.5732 25.5174ZM72.0962 13.0293V16.6509L74.7511 17.3377V20.1267L61.8916 16.0681V13.6746L74.834 9.51188V12.4882L72.0962 13.0293ZM70.0221 16.0265V13.6537L65.4176 14.8817L70.0221 16.0265ZM74.834 8.32552H61.8916V4.32935C61.8187 3.22605 62.1425 2.13311 62.8042 1.24897C63.1349 0.883982 63.5437 0.598882 63.9999 0.415046C64.4561 0.23121 64.9479 0.153411 65.4383 0.187483C66.0348 0.170899 66.624 0.322313 67.1391 0.624564C67.6039 0.905972 67.9672 1.32887 68.1761 1.83174C68.319 1.26754 68.6764 0.781922 69.1717 0.47887C69.7298 0.148111 70.3697 -0.0178215 71.0177 0.000161962C71.5407 -0.0365779 72.0657 0.0370433 72.5586 0.216282C73.0516 0.395522 73.5017 0.676403 73.8799 1.04083C74.588 1.91872 74.9299 3.03756 74.834 4.16284V8.32552ZM69.2132 5.72385H72.594V4.16284C72.608 3.9611 72.5761 3.75879 72.5006 3.57127C72.4252 3.38375 72.3081 3.21593 72.1584 3.08054C71.8015 2.82847 71.3706 2.70388 70.9347 2.72672C69.7732 2.72672 69.1717 3.14298 69.151 3.99633L69.2132 5.72385ZM67.305 5.72385V4.37098C67.305 3.33031 66.7657 2.83078 65.7079 2.83078C65.2569 2.78505 64.8052 2.91137 64.4427 3.18461C64.306 3.33981 64.2024 3.52141 64.1382 3.71827C64.074 3.91513 64.0506 4.12308 64.0694 4.32935V5.72385H67.305Z" fill="white"/>
<path d="M52.5165 42.5426C52.9401 42.5426 53.3463 42.7115 53.6458 43.012C53.9453 43.3126 54.1136 43.7202 54.1136 44.1453V85.335C54.1136 85.76 53.9453 86.1677 53.6458 86.4682C53.3463 86.7688 52.9401 86.9376 52.5165 86.9376H1.59696C1.38646 86.9404 1.17753 86.9009 0.982507 86.8213C0.787482 86.7418 0.610312 86.6238 0.461451 86.4744C0.312591 86.3251 0.195056 86.1473 0.115783 85.9516C0.0365105 85.7559 -0.00289432 85.5462 -0.000105843 85.335V39.5455C-0.000105843 39.1205 0.168156 38.7128 0.467665 38.4123C0.767173 38.1117 1.17339 37.9429 1.59696 37.9429H9.29193C9.50342 37.9429 9.7128 37.985 9.90793 38.0668C10.1031 38.1487 10.28 38.2686 10.4286 38.4196C10.5772 38.5706 10.6944 38.7498 10.7734 38.9466C10.8525 39.1435 10.8917 39.3541 10.889 39.5663L10.4949 73.513C10.4948 73.9364 10.6595 74.3432 10.954 74.6464C11.2485 74.9497 11.6494 75.1256 12.0712 75.1364L42.4363 75.6359C42.6478 75.6387 42.8577 75.5993 43.0538 75.52C43.25 75.4407 43.4285 75.3231 43.579 75.174C43.7295 75.0249 43.849 74.8473 43.9306 74.6514C44.0121 74.4556 44.0541 74.2455 44.0541 74.0333L43.9297 44.1453C43.9269 43.934 43.9663 43.7244 44.0455 43.5287C44.1248 43.333 44.2423 43.1552 44.3912 43.0058C44.5401 42.8564 44.7172 42.7385 44.9123 42.6589C45.1073 42.5794 45.3162 42.5398 45.5267 42.5426H52.5165Z" fill="white"/>
<path d="M19.9529 0.00013878C19.7424 -0.00265941 19.5335 0.0368827 19.3385 0.116432C19.1434 0.195981 18.9663 0.313925 18.8174 0.463304C18.6685 0.612683 18.551 0.79047 18.4717 0.986175C18.3925 1.18188 18.3531 1.39154 18.3559 1.60277V57.341C18.3559 57.7661 18.5241 58.1737 18.8236 58.4743C19.1231 58.7748 19.5293 58.9437 19.9529 58.9437H36.7118C37.1337 58.9383 37.5368 58.7677 37.8351 58.4683C38.1335 58.1689 38.3035 57.7644 38.3088 57.341V49.3071C38.3035 48.8837 38.1335 48.4792 37.8351 48.1798C37.5368 47.8804 37.1337 47.7098 36.7118 47.7044H31.1117C30.6881 47.7044 30.2819 47.5356 29.9824 47.235C29.6829 46.9345 29.5146 46.5269 29.5146 46.1018V1.60277C29.5173 1.3933 29.4786 1.18536 29.4006 0.991041C29.3226 0.796717 29.2069 0.619874 29.0603 0.470777C28.9136 0.32168 28.7389 0.203299 28.5463 0.122507C28.3537 0.0417149 28.147 0.000120644 27.9383 0.00013878H19.9529Z" fill="white"/>
<path d="M42.0837 13.6328C43.3891 13.6287 44.6664 14.0134 45.7537 14.7382C46.8411 15.4629 47.6897 16.4952 48.1921 17.7042C48.6945 18.9132 48.8281 20.2447 48.5759 21.5299C48.3238 22.8152 47.6973 23.9965 46.7757 24.9242C45.8541 25.8519 44.6789 26.4844 43.3989 26.7414C42.1189 26.9985 40.7916 26.8686 39.5852 26.3683C38.3788 25.868 37.3475 25.0197 36.6218 23.9308C35.8962 22.8419 35.5088 21.5614 35.5088 20.2515C35.5088 18.4997 36.2008 16.8194 37.4333 15.5787C38.6657 14.3381 40.338 13.6384 42.0837 13.6328Z" fill="white"/>
</g>
<defs>
<clipPath id="clip0_295_232">
<rect width="75" height="87" fill="white"/>
</clipPath>
</defs>
</svg>
